<svg xmlns="http://www.w3.org/2000/svg" viewBox="90 80 840 840" role="img" aria-labelledby="title desc">
  <title id="title">NuBlox folded ribbon N</title>
  <desc id="desc">A premium dimensional folded ribbon N in electric blue and cyan.</desc>
  <defs>
    <linearGradient id="leftStem" x1="150" y1="130" x2="410" y2="870" gradientUnits="userSpaceOnUse">
      <stop offset="0" stop-color="#0864F7"/>
      <stop offset="0.30" stop-color="#078CF8"/>
      <stop offset="0.62" stop-color="#0C72F5"/>
      <stop offset="1" stop-color="#173EDC"/>
    </linearGradient>
    <linearGradient id="rightStem" x1="760" y1="130" x2="735" y2="870" gradientUnits="userSpaceOnUse">
      <stop offset="0" stop-color="#24D7EF"/>
      <stop offset="0.23" stop-color="#15B6F2"/>
      <stop offset="0.56" stop-color="#0B82EF"/>
      <stop offset="1" stop-color="#173ED9"/>
    </linearGradient>
    <linearGradient id="ribbon" x1="205" y1="120" x2="835" y2="875" gradientUnits="userSpaceOnUse">
      <stop offset="0" stop-color="#0A75F8"/>
      <stop offset="0.18" stop-color="#0B99FC"/>
      <stop offset="0.40" stop-color="#0B88F9"/>
      <stop offset="0.68" stop-color="#105FF0"/>
      <stop offset="1" stop-color="#1936D5"/>
    </linearGradient>
    <linearGradient id="ribbonFaceLight" x1="260" y1="120" x2="740" y2="670" gradientUnits="userSpaceOnUse">
      <stop offset="0" stop-color="#72E6FF" stop-opacity="0.24"/>
      <stop offset="0.34" stop-color="#37CCFF" stop-opacity="0.11"/>
      <stop offset="0.78" stop-color="#FFFFFF" stop-opacity="0"/>
    </linearGradient>
    <linearGradient id="leftFold" x1="342" y1="538" x2="408" y2="675" gradientUnits="userSpaceOnUse">
      <stop offset="0" stop-color="#020C3D" stop-opacity="0.98"/>
      <stop offset="0.24" stop-color="#031453" stop-opacity="0.86"/>
      <stop offset="0.62" stop-color="#082E91" stop-opacity="0.42"/>
      <stop offset="1" stop-color="#0A50C8" stop-opacity="0"/>
    </linearGradient>
    <linearGradient id="rightFold" x1="670" y1="250" x2="700" y2="585" gradientUnits="userSpaceOnUse">
      <stop offset="0" stop-color="#062675" stop-opacity="0"/>
      <stop offset="0.43" stop-color="#020E43" stop-opacity="0.78"/>
      <stop offset="0.74" stop-color="#082F8B" stop-opacity="0.40"/>
      <stop offset="1" stop-color="#0A55C8" stop-opacity="0"/>
    </linearGradient>
    <linearGradient id="rightPlane" x1="670" y1="525" x2="860" y2="710" gradientUnits="userSpaceOnUse">
      <stop offset="0" stop-color="#092C87" stop-opacity="0.40"/>
      <stop offset="0.50" stop-color="#0A4DBD" stop-opacity="0.22"/>
      <stop offset="1" stop-color="#0878E7" stop-opacity="0"/>
    </linearGradient>
    <linearGradient id="topEdge" x1="160" y1="130" x2="860" y2="585" gradientUnits="userSpaceOnUse">
      <stop offset="0" stop-color="#8BEFFF" stop-opacity="0.42"/>
      <stop offset="0.48" stop-color="#3FD1FF" stop-opacity="0.29"/>
      <stop offset="1" stop-color="#5B8EFF" stop-opacity="0.08"/>
    </linearGradient>
    <clipPath id="leftClip"><rect x="150" y="130" width="260" height="740"/></clipPath>
    <clipPath id="rightClip"><rect x="670" y="130" width="190" height="740"/></clipPath>
    <clipPath id="ribbonClip"><path d="M150 130H410L860 580V870H650L335 545L150 360Z"/></clipPath>
  </defs>
  <rect x="150" y="130" width="260" height="740" fill="url(#leftStem)"/>
  <rect x="670" y="130" width="190" height="740" fill="url(#rightStem)"/>
  <rect x="150" y="130" width="260" height="12" fill="#A4F0FF" opacity="0.08"/>
  <rect x="670" y="130" width="190" height="12" fill="#B7F8FF" opacity="0.13"/>
  <path d="M335 545C368 537 397 554 410 588V735C399 650 377 587 335 558Z" fill="url(#leftFold)" clip-path="url(#leftClip)"/>
  <path d="M670 248C696 307 705 379 704 452C704 516 694 566 670 605Z" fill="url(#rightFold)" clip-path="url(#rightClip)"/>
  <path d="M670 526H860V700C807 648 746 590 670 526Z" fill="url(#rightPlane)" clip-path="url(#rightClip)"/>
  <path d="M150 130H410L860 580V870H650L335 545L150 360Z" fill="url(#ribbon)"/>
  <path d="M150 130H410L860 580V632L385 157H150Z" fill="url(#ribbonFaceLight)" clip-path="url(#ribbonClip)"/>
  <path d="M150 130H410L860 580" fill="none" stroke="url(#topEdge)" stroke-width="3" opacity="0.72"/>
  <path d="M150 360L335 545L650 870H860" fill="none" stroke="#082AB4" stroke-width="2.5" opacity="0.32"/>
</svg>
